<svg width="148" height="72" viewBox="0 0 148 72" fill="none" xmlns="http://www.w3.org/2000/svg">
<rect x="1.4" y="1.4" width="145.2" height="69.2" rx="34.6" stroke="white" stroke-width="2.8"/>
<path d="M98.0762 51.141L104.927 20H119.43L126.281 51.141H118.362L117.072 44.4679H107.285L105.995 51.141H98.0762ZM108.219 39.085H116.138L113.558 25.9168H110.799L108.219 39.085Z" fill="white"/>
<path d="M83.6777 51.141V26.4951H75.5811V20H99.2482V26.4951H91.1515V51.141H83.6777Z" fill="white"/>
<path d="M51.021 51.141V20H72.9086V26.2282H58.4948V32.2784H70.6843V38.2397H58.4948V44.9128H73.3535V51.141H51.021Z" fill="white"/>
<path d="M29.4738 32.5898H39.1275V25.9613H29.4738V32.5898ZM29.4738 45.1797H39.8838V37.7504H29.4738V45.1797ZM46.7348 25.1605V32.5009L44.1101 34.6807L47.6246 37.6169V45.9805L42.4641 51.141H22V20H41.5743L46.7348 25.1605Z" fill="white"/>
</svg>
